<?xml version="1.0" encoding="UTF-8" standalone="no"?>
<!-- Created with Inkscape (http://www.inkscape.org/) -->

<svg
   xmlns:dc="http://purl.org/dc/elements/1.1/"
   xmlns:cc="http://creativecommons.org/ns#"
   xmlns:rdf="http://www.w3.org/1999/02/22-rdf-syntax-ns#"
   xmlns:svg="http://www.w3.org/2000/svg"
   xmlns="http://www.w3.org/2000/svg"
   xmlns:sodipodi="http://sodipodi.sourceforge.net/DTD/sodipodi-0.dtd"
   xmlns:inkscape="http://www.inkscape.org/namespaces/inkscape"
   version="1.1"
   id="svg3713"
   width="1333.3333"
   height="1333.3333"
   viewBox="0 0 1333.3333 1333.3333"
   sodipodi:docname="Buckaroo Banzai.svg"
   inkscape:version="0.92.4 (5da689c313, 2019-01-14)">
  <metadata
     id="metadata3719">
    <rdf:RDF>
      <cc:Work
         rdf:about="">
        <dc:format>image/svg+xml</dc:format>
        <dc:type
           rdf:resource="http://purl.org/dc/dcmitype/StillImage" />
        <dc:title></dc:title>
      </cc:Work>
    </rdf:RDF>
  </metadata>
  <defs
     id="defs3717" />
  <sodipodi:namedview
     pagecolor="#ffffff"
     bordercolor="#666666"
     borderopacity="1"
     objecttolerance="10"
     gridtolerance="10"
     guidetolerance="10"
     inkscape:pageopacity="0"
     inkscape:pageshadow="2"
     inkscape:window-width="1366"
     inkscape:window-height="706"
     id="namedview3715"
     showgrid="false"
     inkscape:zoom="0.40275002"
     inkscape:cx="666.66663"
     inkscape:cy="666.66663"
     inkscape:window-x="-8"
     inkscape:window-y="-8"
     inkscape:window-maximized="1"
     inkscape:current-layer="svg3713" />
  <path
     style="fill:#000000;stroke-width:1.33333325"
     d="m 629.51705,1193.1424 c -2.56666,-0.2949 -11.56666,-1.1923 -20,-1.994 -84.59409,-8.0425 -173.51426,-41.7799 -244.90288,-92.9192 C 322.51812,1068.0736 281.95194,1028.579 251.32418,987.9317 205.37253,926.94743 173.00576,855.37171 157.5674,780.59837 140.94605,700.09545 144.38081,613.80282 167.39863,533.60481 216.09277,363.946 351.53135,228.50742 521.19016,179.81328 c 138.61921,-39.78542 286.1472,-20.40743 409.66022,53.80939 127.30232,76.49372 216.19612,205.08532 242.62532,350.9757 4.9345,27.23895 6.9032,48.00189 7.6486,80.66667 1.4333,62.81032 -6.2713,115.04377 -25.5672,173.33333 -20.1445,60.85314 -47.0953,110.52675 -87.8941,162.00003 -16.9907,21.436 -58.0664,62.5035 -79.61137,79.5956 -76.66844,60.8224 -160.88866,96.7076 -257.86791,109.8741 -15.12735,2.0538 -29.25804,2.8244 -58,3.163 -20.9,0.2462 -40.1,0.2063 -42.66667,-0.089 z m 67.47304,-84.5912 c 66.06719,-5.3048 128.12916,-24.5824 184.81942,-57.4086 11.47012,-6.6417 45.29755,-29.3987 44.65508,-30.0412 -0.24509,-0.245 -5.59877,1.5775 -11.89708,4.0501 -14.87384,5.8392 -32.58282,9.9422 -49.49588,11.4678 -7.45502,0.6724 -50.00458,1.2428 -94.55458,1.2675 l -81,0.045 V 677.19853 316.46535 l 93.66667,0.50919 c 82.14706,0.44656 94.81451,0.78592 102.99999,2.75936 12.50206,3.01413 29.44852,8.62081 35.98882,11.90676 9.86713,4.95743 2.62944,-1.06915 -17.14386,-14.27507 -60.46739,-40.38413 -126.66179,-64.19506 -198.84495,-71.52694 -21.81489,-2.21582 -67.39816,-1.84311 -89.33333,0.73042 -70.21105,8.23748 -134.12861,31.63832 -192.28976,70.39916 -11.8927,7.92576 -21.94192,14.92632 -22.33157,15.55679 -0.38965,0.63048 3.60001,-0.66391 8.86593,-2.87641 5.26592,-2.21251 16.51512,-5.88683 24.99823,-8.16515 l 15.42384,-4.14241 93.66666,-0.43784 93.66667,-0.43786 v 360.73318 360.73317 h -80.33333 c -44.86204,-7e-4 -86.80942,-0.6089 -95,-1.3776 -17.72636,-1.6636 -32.65177,-5.0609 -48.67515,-11.0795 -6.59533,-2.4773 -11.99152,-4.3171 -11.99152,-4.0883 0,0.2287 4.95,3.9258 11,8.2157 82.56179,58.5424 184.23156,86.8919 283.1397,78.9503 z M 554.85039,835.9317 V 719.26504 l -43,0.0232 c -46.11135,0.0248 -53.30862,0.76417 -68.95292,7.08318 -12.63174,5.10219 -22.35704,11.41684 -32.99394,21.42304 -23.21802,21.84129 -35.05314,51.59941 -35.05314,88.13724 0,57.3553 30.99551,100.76505 81.33334,113.90873 8.92709,2.33096 14.75654,2.61897 54.33333,2.68452 l 44.33333,0.0734 z m 317.75742,113.9794 c 39.05998,-10.23078 66.66269,-38.39911 77.72012,-79.31273 2.0834,-7.70878 2.51092,-13.8589 2.45616,-35.33334 -0.0624,-24.4948 -0.27887,-26.69089 -3.73836,-37.93421 -9.82583,-31.93389 -28.31748,-54.1705 -56.19535,-67.5761 -20.13984,-9.68463 -25.93787,-10.48968 -75.54661,-10.48968 H 773.51705 V 835.9317 952.59836 h 44.41555 c 40.24644,0 45.37858,-0.25224 54.67521,-2.68726 z M 301.55169,906.47311 c -8.03964,-22.71907 -10.03472,-36.74526 -10.03375,-70.54141 7.8e-4,-27.01859 0.36744,-32.37093 3.08226,-44.9932 8.824,-41.02644 25.95093,-73.26681 53.80347,-101.28172 l 12.88662,-12.96172 -11.35211,-11.04834 C 322.0888,638.54256 303.61066,604.25591 294.5812,562.93041 c -2.62732,-12.0245 -2.98714,-17.50776 -2.99659,-45.66537 -0.0107,-30.50312 0.16597,-32.74844 3.76691,-48 2.07772,-8.8 5.19726,-19.77449 6.93233,-24.38776 1.73508,-4.61325 2.63119,-8.06421 1.99136,-7.66877 -2.13397,1.31887 -18.424,29.42771 -27.15152,46.85062 -30.40456,60.69723 -45.18235,123.70934 -45.15485,192.53924 0.0331,82.84508 20.50672,155.6269 63.86522,227.0349 4.79836,7.90252 8.90262,14.18993 9.12054,13.972 0.21793,-0.21792 -1.31339,-5.2274 -3.40291,-11.13216 z m 732.71971,-4.87475 c 11.1445,-18.5467 23.912,-43.96145 31.717,-63.1353 45.928,-112.82736 40.9447,-243.94867 -13.4233,-353.19802 -7.8902,-15.85485 -27.2334,-48.92569 -28.1063,-48.05284 -0.2945,0.29454 0.78,4.02691 2.3878,8.29418 8.9852,23.84785 13.479,61.2749 10.8974,90.75866 -2.7273,31.14613 -8.4206,51.82055 -21.5715,78.33333 -9.5802,19.31417 -21.59487,35.81216 -37.09921,50.94312 l -11.55624,11.27793 14.06288,14.22282 c 32.87487,33.24869 50.84977,73.10467 56.02397,124.22279 3.0551,30.18248 -1.7671,70.16843 -11.46,95.02699 -4.1352,10.6052 -2.2701,8.61017 8.1275,-8.69366 z M 554.85039,517.93171 V 400.59838 h -41.21604 c -44.97933,0 -54.07265,0.96358 -70.27936,7.44729 -14.99137,5.99749 -24.59244,12.43916 -36.5046,24.49213 -22.95484,23.22618 -33.14478,52.49879 -31.58261,90.72724 0.87864,21.50151 4.17036,36.14373 11.56381,51.43803 12.886,26.65633 34.97107,46.05174 62.46327,54.85609 14.54479,4.65796 22.67392,5.33348 66.55553,5.53064 l 39,0.17524 z m 317.33332,114.0251 c 42.05743,-11.39853 71.23579,-43.31572 79.40495,-86.85828 3.43952,-18.333 2.16617,-50.46728 -2.63511,-66.50016 -11.16613,-37.28697 -37.86208,-63.96139 -74.81792,-74.75758 -6.68437,-1.95276 -15.33754,-2.41316 -54.28525,-2.88827 l -46.33333,-0.56521 v 116.54997 c 0,64.10249 0.45,117.00577 1,117.56284 0.55,0.55708 20.8,0.74122 45,0.40921 36.49627,-0.50071 45.47801,-1.00423 52.66666,-2.95252 z"
     id="path3723"
     inkscape:connector-curvature="0" />
</svg>
